<?xml version="1.0" encoding="iso-8859-1"?>
<!-- Generator: Adobe Illustrator 19.0.0, SVG Export Plug-In . SVG Version: 6.00 Build 0)  -->
<svg version="1.1" id="Layer_1" xmlns="http://www.w3.org/2000/svg" xmlns:xlink="http://www.w3.org/1999/xlink" x="0px" y="0px"
	 viewBox="0 0 509.614 509.614" style="enable-background:new 0 0 509.614 509.614;" xml:space="preserve">
<g transform="translate(-1)">
	<g>
		<path d="M455.29,158.306c-15.683-40.789-40.376-78.839-71.402-110.026c-42.828-43.053-86.196-58-122.09-42.065
			c-5.31,2.355-10.336,5.482-15.294,9.502c-41.04,2.001-161.62,20.741-202.906,168.39c-1.168,4.761-28.07,117.446,18.064,182.748
			c13.474,19.074,31.744,32.126,54.509,39.004c0.165,0.326,0.344,0.648,0.553,0.959c1.572,2.353,2.47,4.105,3.279,5.641
			c1.823,3.512,3.557,6.827,9.009,12.001c7.048,6.686,14.623,12.674,22.369,18.29v57.881c0,4.958,4.015,8.982,8.982,8.982
			s8.982-4.024,8.982-8.982v-45.477c0.932,0.624,1.862,1.246,2.791,1.867l8.614,5.785c3.404,2.299,6.719,4.761,10.024,7.204
			c14.39,10.635,29.265,21.639,50.185,21.639c20.92,0,35.795-11.003,50.185-21.639c3.306-2.443,6.62-4.904,10.024-7.204l8.614-5.785
			c11.254-7.525,22.795-15.251,33.563-24.133c-9.446,19.07-21.809,36.726-37.005,52.541c-3.225,3.359-3.35,8.623-0.287,12.126
			c1.77,2.03,4.258,3.072,6.773,3.072c1.841,0,3.692-0.566,5.291-1.725c3.593-2.623,16.339-8.677,23.956-12.297
			c6.135-2.91,9.144-4.347,10.662-5.291c68.06-42.245,103.271-76.629,119.242-157.84
			C482.201,271.521,476.273,212.866,455.29,158.306z M76.358,356.526C34.931,297.942,60.782,189.47,60.98,188.662
			C97.293,58.813,199.959,37.277,241.884,34.011c4.244,37.898,16.858,74.563,36.998,108.046
			c-15.762,0.963-31.194,5.047-45.34,12.094C105.65,217.828,121.243,348.459,130.208,390.91
			C107.141,386.024,89.059,374.491,76.358,356.526z M358.928,388.36c-5.372,9.351-9.836,14.956-18.387,23.076
			c-12.18,11.551-26.705,21.261-40.735,30.648l-8.722,5.848c-3.593,2.443-7.114,5.039-10.626,7.635
			c-12.593,9.324-24.495,18.118-39.496,18.118c-15.001,0-26.902-8.794-39.496-18.118c-3.512-2.596-7.033-5.192-10.626-7.635
			l-8.722-5.848c-14.031-9.387-28.555-19.097-40.735-30.648c-0.274-0.261-0.525-0.506-0.765-0.744
			c0.211,0.022,0.419,0.049,0.631,0.071c0.314,0.036,0.611,0.045,0.907,0.045c2.695,0,5.264-1.213,6.97-3.323
			c1.904-2.344,2.506-5.497,1.59-8.381c-0.512-1.581-48.775-159.367,90.822-228.873c15.154-7.535,32.002-11.052,49.011-10.326
			c4.646,6.564,9.586,12.987,14.835,19.242c32.328,38.517,51.703,78.534,57.587,118.937c4.521,31.041,3.338,61.07-3.236,89.119
			C359.441,387.563,359.167,387.944,358.928,388.36z M454.347,320.017c-14.561,74.042-45.299,104.87-108.239,144.258
			c31.457-48.047,43.691-106.595,34.636-168.78c-6.369-43.763-27.1-86.788-61.611-127.892c-5.421-6.463-10.499-13.11-15.231-19.919
			c-0.464-1.083-1.135-2.062-1.97-2.881c-23.949-35.422-38.558-75.106-42.569-116.204l-0.009-0.135
			c3.198-2.434,6.413-4.357,9.728-5.83c38.651-17.139,80.528,16.653,102.068,38.31c29.283,29.435,52.583,65.329,67.368,103.801
			C458.308,216.189,463.922,271.332,454.347,320.017z"/>
	</g>
</g>
<g>
</g>
<g>
</g>
<g>
</g>
<g>
</g>
<g>
</g>
<g>
</g>
<g>
</g>
<g>
</g>
<g>
</g>
<g>
</g>
<g>
</g>
<g>
</g>
<g>
</g>
<g>
</g>
<g>
</g>
</svg>
